<svg width="25" height="25" viewBox="0 0 25 25" fill="none" xmlns="http://www.w3.org/2000/svg">
<path d="M24.7964 9.46965L23.8142 8.36468C23.543 8.0595 23.1033 8.0595 22.832 8.36468L22.3411 8.91692L21.0868 7.5058C21.3311 6.46528 21.1024 5.31343 20.3771 4.49752L18.4132 2.28807C15.7013 -0.762689 11.3042 -0.762689 8.59192 2.28807L12.5203 4.49752V5.41304C12.5203 6.24165 12.8129 7.03656 13.3341 7.6225L15.467 10.0219C16.1922 10.8378 17.2161 11.0951 18.141 10.8202L19.3954 12.2313L18.9045 12.7836C18.6332 13.0888 18.6332 13.5834 18.9045 13.8886L19.8867 14.9935C20.158 15.2987 20.5976 15.2987 20.8689 14.9935L24.7973 10.5741C25.0677 10.2694 25.0677 9.77482 24.7964 9.46965ZM12.3519 8.72747C12.1913 8.54681 12.055 8.3471 11.9244 8.14398L0.852291 19.7733C-0.257524 20.9393 -0.287472 22.9075 0.785885 24.1155C1.85924 25.3235 3.60925 25.2898 4.64572 24.0408L14.9813 11.5863C14.8094 11.4442 14.6384 11.2997 14.4847 11.1269L12.3519 8.72747Z" fill="#00497C"/>
</svg>
