<svg width="47" height="40" viewBox="0 0 47 40" fill="none" xmlns="http://www.w3.org/2000/svg">
<path d="M20.444 10.5633L14.308 1.7821C14.0558 1.42086 13.6988 1.1219 13.272 0.914333C12.8452 0.706763 12.363 0.597661 11.8725 0.597656H2.00694C0.857512 0.597656 0.184718 1.70816 0.84331 2.51684L10.7195 14.6326C13.3574 12.516 16.7125 11.0632 20.444 10.5633ZM44.6059 0.597656H34.7404C33.7427 0.597656 32.8178 1.04735 32.3048 1.7821L26.1689 10.5633C29.9003 11.0632 33.2554 12.516 35.8933 14.6318L45.7696 2.51684C46.4281 1.70816 45.7554 0.597656 44.6059 0.597656ZM23.3064 12.7927C14.6791 12.7927 7.68485 18.7987 7.68485 26.2071C7.68485 33.6156 14.6791 39.6216 23.3064 39.6216C31.9338 39.6216 38.928 33.6156 38.928 26.2071C38.928 18.7987 31.9338 12.7927 23.3064 12.7927ZM31.5184 24.7788L28.1518 27.5959L28.948 31.576C29.09 32.2894 28.2148 32.8344 27.4701 32.4975L23.3064 30.6187L19.1436 32.4975C18.3981 32.8367 17.5238 32.2886 17.6658 31.576L18.462 27.5959L15.0953 24.7788C14.49 24.2727 14.8246 23.3893 15.659 23.2857L20.3126 22.7034L22.3922 19.0815C22.5795 18.7552 22.9416 18.5944 23.3047 18.5944C23.6695 18.5944 24.0343 18.7575 24.2215 19.0815L26.3012 22.7034L30.9548 23.2857C31.7891 23.3893 32.1237 24.2727 31.5184 24.7788Z" fill="#FFD700"/>
</svg>
