<svg width="43" height="40" viewBox="0 0 43 40" fill="none" xmlns="http://www.w3.org/2000/svg">
<path d="M18.883 10.5368L13.143 1.75561C12.907 1.39437 12.5731 1.09541 12.1738 0.887844C11.7745 0.680274 11.3235 0.571172 10.8646 0.571167H1.63552C0.560246 0.571167 -0.0691413 1.68167 0.546961 2.49035L9.786 14.6061C12.2537 12.4895 15.3924 11.0368 18.883 10.5368ZM41.4862 0.571167H32.2571C31.3238 0.571167 30.4586 1.02086 29.9787 1.75561L24.2386 10.5368C27.7293 11.0368 30.868 12.4895 33.3357 14.6053L42.5747 2.49035C43.1908 1.68167 42.5614 0.571167 41.4862 0.571167ZM21.5608 12.7662C13.4901 12.7662 6.94711 18.7722 6.94711 26.1807C6.94711 33.5891 13.4901 39.5952 21.5608 39.5952C29.6316 39.5952 36.1746 33.5891 36.1746 26.1807C36.1746 18.7722 29.6316 12.7662 21.5608 12.7662ZM29.243 24.7523L26.0936 27.5694L26.8384 31.5495C26.9713 32.2629 26.1525 32.8079 25.4559 32.471L21.5608 30.5922L17.6666 32.471C16.9691 32.8102 16.1513 32.2621 16.2841 31.5495L17.0289 27.5694L13.8795 24.7523C13.3132 24.2462 13.6263 23.3629 14.4068 23.2592L18.7602 22.6769L20.7056 19.055C20.8808 18.7288 21.2196 18.5679 21.5592 18.5679C21.9005 18.5679 22.2417 18.731 22.4169 19.055L24.3624 22.6769L28.7158 23.2592C29.4963 23.3629 29.8093 24.2462 29.243 24.7523Z" fill="#C0C0C0"/>
</svg>
