<svg width="48" height="40" viewBox="0 0 48 40" fill="none" xmlns="http://www.w3.org/2000/svg">
<path d="M21.0176 10.5368L14.7465 1.75561C14.4887 1.39437 14.1239 1.09541 13.6877 0.887843C13.2514 0.680274 12.7587 0.571172 12.2573 0.571167H2.17448C0.999732 0.571167 0.312119 1.68167 0.985217 2.49035L11.079 14.6061C13.775 12.4895 17.204 11.0368 21.0176 10.5368ZM45.7118 0.571167H35.6289C34.6093 0.571167 33.664 1.02086 33.1397 1.75561L26.8687 10.5368C30.6823 11.0368 34.1113 12.4895 36.8073 14.6053L46.901 2.49035C47.5741 1.68167 46.8865 0.571167 45.7118 0.571167ZM23.9431 12.7662C15.1257 12.7662 7.97745 18.7722 7.97745 26.1807C7.97745 33.5891 15.1257 39.5951 23.9431 39.5951C32.7605 39.5951 39.9088 33.5891 39.9088 26.1807C39.9088 18.7722 32.7605 12.7662 23.9431 12.7662ZM32.336 24.7523L28.8952 27.5694L29.7089 31.5495C29.854 32.2629 28.9596 32.8079 28.1985 32.471L23.9431 30.5922L19.6886 32.471C18.9266 32.8102 18.0331 32.2621 18.1782 31.5495L18.992 27.5694L15.5512 24.7523C14.9325 24.2462 15.2745 23.3629 16.1272 23.2592L20.8833 22.6769L23.0088 19.055C23.2002 18.7288 23.5703 18.5679 23.9413 18.5679C24.3141 18.5679 24.687 18.731 24.8784 19.055L27.0038 22.6769L31.76 23.2592C32.6127 23.3629 32.9547 24.2462 32.336 24.7523Z" fill="#FFA500"/>
</svg>
